<svg width="21" height="21" viewBox="0 0 21 21" fill="none" xmlns="http://www.w3.org/2000/svg">
<path d="M0 1.90909C0 0.854728 0.854728 0 1.90909 0H17.0545C19.1632 0 20.8727 1.70946 20.8727 3.81818H1.90909C0.85473 3.81818 0 2.96345 0 1.90909Z" fill="#111827"/>
<path d="M13.4909 3.81818L0 16.0151H6.68181L20.8727 3.81818H13.4909Z" fill="#111827"/>
<path d="M0 16.0151H18.9848C20.0978 16.0151 21 16.9173 21 18.0303C21 19.1432 20.0978 20.0454 18.9848 20.0454H4.03029C1.80442 20.0454 0 18.241 0 16.0151Z" fill="#111827"/>
<path d="M-5.34058e-05 5.72726L-5.33041e-05 12.8333L8.65448 5.72726L-5.34058e-05 5.72726Z" fill="#111827"/>
<path d="M20.8727 14.2121L20.8727 7.10605L12.2181 14.2121L20.8727 14.2121Z" fill="#111827"/>
</svg>
